<?xml version="1.0" standalone="no"?>
<!DOCTYPE svg PUBLIC "-//W3C//DTD SVG 20010904//EN"
 "http://www.w3.org/TR/2001/REC-SVG-20010904/DTD/svg10.dtd">
<svg version="1.0" xmlns="http://www.w3.org/2000/svg"
 width="512.000000pt" height="512.000000pt" viewBox="0 0 512.000000 512.000000"
 preserveAspectRatio="xMidYMid meet">
<metadata>
Created by potrace 1.14, written by Peter Selinger 2001-2017
</metadata>
<g transform="translate(0.000000,512.000000) scale(0.100000,-0.100000)"
fill="#000000" stroke="none">
<path d="M403 5106 c-132 -32 -274 -139 -335 -252 -45 -84 -68 -187 -64 -284
7 -140 56 -250 155 -349 216 -215 564 -197 765 39 l46 54 -47 25 c-100 50
-193 168 -223 281 -14 50 -16 149 -5 201 11 54 46 131 77 170 15 20 28 41 28
45 0 10 -30 25 -114 57 -63 24 -209 31 -283 13z"/>
<path d="M4530 5117 c-3 -3 -21 -7 -40 -10 -140 -19 -289 -136 -360 -282 -164
-336 60 -725 432 -752 234 -17 450 127 529 354 28 77 34 211 13 289 -45 178
-170 315 -339 375 -52 18 -224 37 -235 26z"/>
<path d="M1510 4540 l0 -150 150 0 150 0 0 150 0 150 -150 0 -150 0 0 -150z"/>
<path d="M2110 4540 l0 -150 150 0 150 0 0 150 0 150 -150 0 -150 0 0 -150z"/>
<path d="M2710 4540 l0 -150 150 0 150 0 0 150 0 150 -150 0 -150 0 0 -150z"/>
<path d="M3310 4540 l0 -150 150 0 150 0 0 150 0 150 -150 0 -150 0 0 -150z"/>
<path d="M1605 3563 c-84 -11 -214 -46 -307 -82 -87 -34 -235 -111 -272 -142
-6 -5 -36 -28 -66 -51 -137 -104 -263 -258 -335 -408 -61 -127 -85 -231 -91
-395 -3 -71 -10 -129 -18 -145 -7 -14 -78 -137 -157 -275 l-144 -250 -1 -72
-2 -73 67 -1 c36 0 108 0 159 0 l92 1 1 -228 c0 -125 1 -258 2 -297 l2 -70
220 -1 c126 -1 244 -6 276 -13 109 -23 191 -99 204 -187 4 -33 9 -334 6 -392
-1 -7 -75 -88 -166 -180 l-165 -167 0 -67 0 -68 1650 0 1650 0 0 68 0 67 -165
168 -165 167 -1 53 c-1 134 1 324 5 347 7 46 35 97 68 125 79 67 154 81 445
80 l192 -1 0 195 c0 108 0 242 1 299 l0 102 159 0 159 0 -2 73 -1 72 -146 255
c-80 140 -151 265 -158 278 -7 13 -14 74 -16 140 -3 132 -13 188 -49 292 -113
323 -410 600 -776 724 -41 14 -88 28 -105 31 -141 27 -195 33 -293 33 -183 -1
-352 -42 -517 -126 -49 -25 -92 -48 -95 -52 -3 -3 -23 -17 -45 -31 -22 -14
-64 -48 -93 -74 l-53 -48 -21 23 c-41 43 -176 137 -264 182 -165 85 -342 127
-529 125 -60 0 -123 -2 -140 -4z"/>
</g>
</svg>
